# xmcd
#
# Track frame offsets: 
#        150
#        14730
#        32116
#        41577
#        49538
#        66910
#        74470
#        97166
#        112697
#        125819
#        142304
#        157967
#
# Disc length: 2400 seconds
#
# Revision: 0
# Processed by: cddbd v1.4PL0 Copyright (c) Steve Scherf et al.
# Submitted via: ExactAudioCopy v0.90b4
#
DISCID=b1095e0c
DTITLE=Theresa Lindstrom - Thinking of Angels
DYEAR=2000
DGENRE=Blues
TTITLE0=It's A Beatiful Day
TTITLE1=Some Change
TTITLE2=Men
TTITLE3=My Little Car
TTITLE4=Crying Shame
TTITLE5=Baby, I'll Be Good To You
TTITLE6=Christian
TTITLE7=Left Him The Ring
TTITLE8=Applause
TTITLE9=Julie's Song
TTITLE10=Missing You
TTITLE11=To Remember You
EXTD=
EXTT0=
EXTT1=
EXTT2=
EXTT3=
EXTT4=
EXTT5=
EXTT6=
EXTT7=
EXTT8=
EXTT9=
EXTT10=
EXTT11=
PLAYORDER=
